<svg width="65" height="43" viewBox="0 0 65 43" fill="none" xmlns="http://www.w3.org/2000/svg">
<rect width="64.5" height="43" fill="white"/>
<path d="M25.3544 10.2316H39.1515V32.7663H25.3544V10.2316Z" fill="#FF5F00"/>
<path d="M26.7755 21.5008C26.7738 19.3309 27.2657 17.189 28.2139 15.2373C29.1622 13.2856 30.542 11.5751 32.2489 10.2354C30.1348 8.57395 27.596 7.54078 24.9225 7.25399C22.249 6.96721 19.5487 7.43837 17.1303 8.61362C14.7119 9.78888 12.6729 11.6208 11.2464 13.9001C9.81995 16.1793 9.06348 18.8139 9.06348 21.5028C9.06348 24.1916 9.81995 26.8262 11.2464 29.1054C12.6729 31.3847 14.7119 33.2166 17.1303 34.3919C19.5487 35.5671 22.249 36.0383 24.9225 35.7515C27.596 35.4647 30.1348 34.4316 32.2489 32.7701C30.5415 31.43 29.1614 29.7189 28.2131 27.7664C27.2648 25.8139 26.7732 23.6713 26.7755 21.5007V21.5008Z" fill="#EB001B"/>
<path d="M54.0672 30.3816V29.9199H54.2662V29.8243H53.7925V29.9199H53.9796V30.3817L54.0672 30.3816ZM54.9867 30.3816V29.8244H54.8434L54.6762 30.2224L54.509 29.8243H54.3658V30.3816H54.4692V29.9597L54.6245 30.322H54.732L54.8872 29.9597V30.3816H54.9867Z" fill="#F79E1B"/>
<path d="M55.4365 21.5009C55.4365 24.1899 54.6798 26.8247 53.253 29.104C51.8263 31.3833 49.787 33.2152 47.3683 34.3903C44.9496 35.5654 42.2491 36.0363 39.5754 35.7491C36.9018 35.4619 34.3628 34.4282 32.2489 32.7662C33.9551 31.4253 35.3346 29.7143 36.2831 27.7625C37.2316 25.8107 37.7245 23.6689 37.7245 21.4988C37.7245 19.3287 37.2316 17.187 36.2831 15.2352C35.3346 13.2833 33.9551 11.5724 32.2489 10.2315C34.3628 8.56949 36.9018 7.53581 39.5754 7.24861C42.2491 6.9614 44.9496 7.43226 47.3683 8.60735C49.787 9.78245 51.8263 11.6144 53.2531 13.8937C54.6798 16.173 55.4365 18.8078 55.4365 21.4969V21.5009Z" fill="#F79E1B"/>
</svg>
