<svg width="56" height="15" viewBox="0 0 56 15" fill="none" xmlns="http://www.w3.org/2000/svg">
<path d="M9.93261 0.925643C9.24789 0.454924 8.35439 0.218994 7.25211 0.218994H2.98466C2.64674 0.218994 2.46005 0.387993 2.42459 0.725583L0.690988 11.6077C0.672972 11.7146 0.699711 11.8123 0.770963 11.9012C0.841807 11.9902 0.930913 12.0345 1.03763 12.0345H3.06464C3.42016 12.0345 3.61557 11.8659 3.65144 11.5278L4.13146 8.5941C4.14898 8.45192 4.21151 8.33632 4.31823 8.2473C4.42486 8.15844 4.55823 8.10031 4.71826 8.07365C4.8783 8.04724 5.0292 8.03395 5.1717 8.03395C5.3138 8.03395 5.48263 8.04292 5.67853 8.06061C5.87395 8.07838 5.99851 8.08702 6.05191 8.08702C7.58097 8.08702 8.78117 7.65617 9.65257 6.79356C10.5236 5.93129 10.9596 4.73558 10.9596 3.20619C10.9596 2.15722 10.617 1.39709 9.93261 0.925643ZM7.73228 4.19312C7.64309 4.81555 7.41222 5.22431 7.03884 5.41997C6.66538 5.61587 6.13197 5.71321 5.43861 5.71321L4.5584 5.73995L5.01191 2.88605C5.04729 2.69063 5.16281 2.5928 5.35855 2.5928H5.86547C6.57635 2.5928 7.09232 2.69528 7.41238 2.89942C7.73228 3.10404 7.839 3.53546 7.73228 4.19312Z" fill="#003087"/>
<path d="M54.9677 0.219116H52.9941C52.7981 0.219116 52.6826 0.316945 52.6474 0.51252L50.9136 11.6078L50.8869 11.6611C50.8869 11.7505 50.9225 11.8345 50.9938 11.9146C51.0645 11.9945 51.1538 12.0345 51.2604 12.0345H53.0209C53.3582 12.0345 53.545 11.8659 53.581 11.5279L55.3146 0.61899V0.592495C55.3145 0.343603 55.1986 0.219116 54.9677 0.219116Z" fill="#009CDE"/>
<path d="M31.1232 4.51303C31.1232 4.42433 31.0874 4.33971 31.0167 4.25981C30.9454 4.17984 30.8653 4.13965 30.7766 4.13965H28.7229C28.5269 4.13965 28.367 4.229 28.2428 4.40631L25.4156 8.56729L24.2422 4.56651C24.1529 4.28215 23.9574 4.13965 23.6554 4.13965H21.6548C21.5657 4.13965 21.4856 4.17976 21.4149 4.25981C21.3436 4.33971 21.3082 4.42441 21.3082 4.51303C21.3082 4.5489 21.4816 5.07318 21.8283 6.08668C22.1749 7.10035 22.5484 8.19391 22.9485 9.36761C23.3486 10.541 23.5573 11.1637 23.5752 11.2343C22.1171 13.226 21.3882 14.2929 21.3882 14.4349C21.3882 14.6662 21.5037 14.7817 21.7349 14.7817H23.7887C23.9842 14.7817 24.1442 14.693 24.2688 14.5151L31.0701 4.69972C31.1054 4.66434 31.1232 4.60238 31.1232 4.51303Z" fill="#003087"/>
<path d="M50.2468 4.13965H48.2196C47.9705 4.13965 47.8198 4.43306 47.7665 5.01986C47.3037 4.30898 46.4596 3.95288 45.2325 3.95288C43.9522 3.95288 42.8629 4.43306 41.9653 5.39324C41.0672 6.35351 40.6184 7.48278 40.6184 8.78064C40.6184 9.82993 40.925 10.6656 41.5384 11.2877C42.1519 11.9104 42.9742 12.2212 44.0058 12.2212C44.5213 12.2212 45.0458 12.1143 45.5792 11.9011C46.1127 11.6878 46.5302 11.4034 46.833 11.0477C46.833 11.0655 46.8149 11.1454 46.7796 11.2876C46.7437 11.4301 46.7262 11.537 46.7262 11.6076C46.7262 11.8925 46.8414 12.0343 47.073 12.0343H48.9135C49.2508 12.0343 49.4467 11.8657 49.4999 11.5277L50.5936 4.56643C50.6111 4.45971 50.5844 4.36205 50.5135 4.27303C50.4422 4.18425 50.3535 4.13965 50.2468 4.13965ZM46.7662 9.39402C46.3128 9.83857 45.7661 10.0607 45.1259 10.0607C44.6101 10.0607 44.1926 9.91871 43.8723 9.63403C43.5522 9.35 43.3922 8.95877 43.3922 8.46049C43.3922 7.80301 43.6144 7.24701 44.059 6.79358C44.5031 6.34014 45.0548 6.11342 45.7127 6.11342C46.2101 6.11342 46.6236 6.26017 46.9529 6.55349C47.2816 6.84689 47.4464 7.25158 47.4464 7.76722C47.4463 8.40726 47.2196 8.94972 46.7662 9.39402Z" fill="#009CDE"/>
<path d="M19.9479 4.13965H17.9209C17.6716 4.13965 17.5208 4.43306 17.4674 5.01986C16.9873 4.30898 16.1426 3.95288 14.9336 3.95288C13.6533 3.95288 12.5641 4.43306 11.6663 5.39324C10.7682 6.35351 10.3194 7.48278 10.3194 8.78064C10.3194 9.82993 10.6262 10.6656 11.2396 11.2877C11.8531 11.9104 12.6753 12.2212 13.7067 12.2212C14.2043 12.2212 14.7203 12.1143 15.2536 11.9011C15.787 11.6878 16.2138 11.4034 16.5339 11.0477C16.4625 11.261 16.4272 11.4478 16.4272 11.6076C16.4272 11.8925 16.5427 12.0343 16.7739 12.0343H18.6142C18.9518 12.0343 19.1476 11.8657 19.201 11.5277L20.2945 4.56643C20.312 4.45971 20.2854 4.36205 20.2145 4.27303C20.1433 4.18425 20.0546 4.13965 19.9479 4.13965ZM16.4673 9.40723C16.0138 9.84338 15.4578 10.0607 14.8004 10.0607C14.2844 10.0607 13.871 9.91871 13.5601 9.63403C13.2487 9.35 13.0932 8.95877 13.0932 8.46049C13.0932 7.80301 13.3154 7.24701 13.7601 6.79358C14.2043 6.34014 14.7556 6.11342 15.4137 6.11342C15.9114 6.11342 16.3248 6.26017 16.654 6.55349C16.9827 6.84689 17.1474 7.25158 17.1474 7.76722C17.1474 8.42511 16.9207 8.97206 16.4673 9.40723Z" fill="#003087"/>
<path d="M40.2316 0.925765C39.5469 0.455046 38.6536 0.219116 37.5511 0.219116H33.3104C32.9545 0.219116 32.7589 0.388115 32.7236 0.725705L30.9899 11.6077C30.9719 11.7146 30.9986 11.8124 31.0699 11.9012C31.1405 11.9903 31.2299 12.0345 31.3366 12.0345H33.5235C33.7369 12.0345 33.8791 11.9191 33.9503 11.6879L34.4305 8.59414C34.4481 8.45196 34.5104 8.33636 34.6172 8.24734C34.7239 8.15848 34.8571 8.10035 35.0173 8.07369C35.1773 8.04728 35.3282 8.03399 35.4707 8.03399C35.6128 8.03399 35.7817 8.04296 35.9773 8.06065C36.1729 8.07842 36.2977 8.08706 36.3507 8.08706C37.88 8.08706 39.08 7.65621 39.9515 6.7936C40.8227 5.93133 41.2584 4.73562 41.2584 3.20623C41.2584 2.15734 40.916 1.39722 40.2316 0.925765ZM37.4977 5.31338C37.1065 5.58004 36.5197 5.71333 35.7375 5.71333L34.8839 5.74007L35.3374 2.88617C35.3727 2.69076 35.4882 2.59293 35.6841 2.59293H36.164C36.5551 2.59293 36.8663 2.6107 37.0978 2.64616C37.3286 2.68203 37.5511 2.79282 37.7645 2.97951C37.978 3.16628 38.0846 3.43751 38.0846 3.79312C38.0846 4.53988 37.8887 5.04655 37.4977 5.31338Z" fill="#009CDE"/>
</svg>
