<svg width="46" height="15" viewBox="0 0 46 15" fill="none" xmlns="http://www.w3.org/2000/svg">
<path fill-rule="evenodd" clip-rule="evenodd" d="M11.7326 14.4082H7.79488L4.84202 3.14294C4.7019 2.62479 4.4043 2.16664 3.96657 1.95074C2.8741 1.40818 1.6703 0.9763 0.357117 0.75855V0.324814H6.70047C7.57602 0.324814 8.23261 0.976301 8.342 1.73299L9.87414 9.85892L13.81 0.324814H17.6382L11.7326 14.4082ZM19.8269 14.4082H16.1081L19.1703 0.324814H22.8892L19.8269 14.4082ZM27.7005 4.2263C27.81 3.46784 28.4666 3.03411 29.2326 3.03411C30.4364 2.92519 31.7477 3.14303 32.8421 3.68374L33.4987 0.651485C32.4043 0.217749 31.2005 0 30.1081 0C26.4986 0 23.8722 1.95074 23.8722 4.65818C23.8722 6.71784 25.7326 7.79926 27.0458 8.45074C28.4666 9.10037 29.0138 9.53411 28.9043 10.1837C28.9043 11.1582 27.81 11.5919 26.7175 11.5919C25.4043 11.5919 24.091 11.2671 22.8892 10.7244L22.2326 13.7585C23.5458 14.2993 24.9666 14.5171 26.2798 14.5171C30.3269 14.6241 32.8421 12.6752 32.8421 9.75C32.8421 6.06626 27.7005 5.85037 27.7005 4.2263ZM45.8571 14.4082L42.9043 0.324814H39.7326C39.0759 0.324814 38.4193 0.75855 38.2005 1.40818L32.7326 14.4082H36.5609L37.325 12.3504H42.0288L42.4665 14.4082H45.8571ZM40.2797 4.11747L41.3722 9.42519H38.31L40.2797 4.11747Z" fill="#172B85"/>
</svg>
